<?xml version="1.0" encoding="utf-8"?>
<!-- Generator: Adobe Illustrator 19.0.0, SVG Export Plug-In . SVG Version: 6.00 Build 0)  -->
<svg version="1.1" id="_x30_" xmlns="http://www.w3.org/2000/svg" xmlns:xlink="http://www.w3.org/1999/xlink" x="0px" y="0px"
	 width="612px" height="792px" viewBox="0 0 612 792" style="enable-background:new 0 0 612 792;" xml:space="preserve">
<g>
	<g id="LINE">
		
			<line style="fill:none;stroke:#000000;stroke-width:0.7087;stroke-linecap:round;stroke-linejoin:round;stroke-miterlimit:10;" x1="-210.6" y1="492.4" x2="-210.7" y2="493.4"/>
	</g>
	<g id="LINE_2_">
		
			<line style="fill:none;stroke:#000000;stroke-width:0.7087;stroke-linecap:round;stroke-linejoin:round;stroke-miterlimit:10;" x1="-76.6" y1="496.8" x2="-75.7" y2="496.5"/>
	</g>
	<g id="LINE_3_">
		
			<line style="fill:none;stroke:#000000;stroke-width:0.7087;stroke-linecap:round;stroke-linejoin:round;stroke-miterlimit:10;" x1="-80.6" y1="491.6" x2="-81" y2="492.4"/>
	</g>
	<g id="LINE_5_">
		
			<line style="fill:none;stroke:#000000;stroke-width:0.7087;stroke-linecap:round;stroke-linejoin:round;stroke-miterlimit:10;" x1="-75.7" y1="490.2" x2="-76.6" y2="489.9"/>
	</g>
	<g id="LINE_6_">
		
			<line style="fill:none;stroke:#000000;stroke-width:0.7087;stroke-linecap:round;stroke-linejoin:round;stroke-miterlimit:10;" x1="-210.2" y1="495.2" x2="-209.6" y2="495.9"/>
	</g>
	<g id="LINE_7_">
		
			<line style="fill:none;stroke:#000000;stroke-width:0.7087;stroke-linecap:round;stroke-linejoin:round;stroke-miterlimit:10;" x1="-81.1" y1="493.4" x2="-81" y2="494.3"/>
	</g>
	<g id="LINE_8_">
		
			<line style="fill:none;stroke:#000000;stroke-width:0.7087;stroke-linecap:round;stroke-linejoin:round;stroke-miterlimit:10;" x1="-210.6" y1="305.2" x2="-210.7" y2="306.2"/>
	</g>
	<g id="LINE_9_">
		
			<line style="fill:none;stroke:#000000;stroke-width:0.7087;stroke-linecap:round;stroke-linejoin:round;stroke-miterlimit:10;" x1="-207.1" y1="309.8" x2="-206.2" y2="309.6"/>
	</g>
	<g id="LINE_10_">
		
			<line style="fill:none;stroke:#000000;stroke-width:0.7087;stroke-linecap:round;stroke-linejoin:round;stroke-miterlimit:10;" x1="-206.2" y1="302.7" x2="-207.1" y2="302.6"/>
	</g>
	<g id="LINE_11_">
		
			<line style="fill:none;stroke:#000000;stroke-width:0.7087;stroke-linecap:round;stroke-linejoin:round;stroke-miterlimit:10;" x1="-208" y1="309.6" x2="-207.1" y2="309.8"/>
	</g>
	<g id="LINE_12_">
		
			<line style="fill:none;stroke:#000000;stroke-width:0.7087;stroke-linecap:round;stroke-linejoin:round;stroke-miterlimit:10;" x1="-210.2" y1="304.4" x2="-210.6" y2="305.2"/>
	</g>
	<g id="LINE_13_">
		
			<line style="fill:none;stroke:#000000;stroke-width:0.7087;stroke-linecap:round;stroke-linejoin:round;stroke-miterlimit:10;" x1="-204.6" y1="495.9" x2="-204" y2="495.2"/>
	</g>
	<g id="LINE_14_">
		
			<line style="fill:none;stroke:#000000;stroke-width:0.7087;stroke-linecap:round;stroke-linejoin:round;stroke-miterlimit:10;" x1="-80" y1="495.9" x2="-79.3" y2="496.5"/>
	</g>
	<g id="LINE_15_">
		
			<line style="fill:none;stroke:#000000;stroke-width:0.7087;stroke-linecap:round;stroke-linejoin:round;stroke-miterlimit:10;" x1="-210.6" y1="494.3" x2="-210.2" y2="495.2"/>
	</g>
	<g id="LINE_16_">
		
			<line style="fill:none;stroke:#000000;stroke-width:0.7087;stroke-linecap:round;stroke-linejoin:round;stroke-miterlimit:10;" x1="-208.9" y1="490.2" x2="-209.6" y2="490.8"/>
	</g>
	<g id="LINE_17_">
		
			<line style="fill:none;stroke:#000000;stroke-width:0.7087;stroke-linecap:round;stroke-linejoin:round;stroke-miterlimit:10;" x1="-79.3" y1="496.5" x2="-78.4" y2="496.8"/>
	</g>
	<g id="LINE_18_">
		
			<line style="fill:none;stroke:#000000;stroke-width:0.7087;stroke-linecap:round;stroke-linejoin:round;stroke-miterlimit:10;" x1="-208.9" y1="309.3" x2="-208" y2="309.6"/>
	</g>
	<g id="LINE_19_">
		
			<line style="fill:none;stroke:#000000;stroke-width:0.7087;stroke-linecap:round;stroke-linejoin:round;stroke-miterlimit:10;" x1="-81" y1="494.3" x2="-80.6" y2="495.2"/>
	</g>
	<g id="LINE_20_">
		
			<line style="fill:none;stroke:#000000;stroke-width:0.7087;stroke-linecap:round;stroke-linejoin:round;stroke-miterlimit:10;" x1="-210.2" y1="308" x2="-209.6" y2="308.7"/>
	</g>
	<g id="LINE_21_">
		
			<line style="fill:none;stroke:#000000;stroke-width:0.7087;stroke-linecap:round;stroke-linejoin:round;stroke-miterlimit:10;" x1="-205.3" y1="490.2" x2="-206.2" y2="489.9"/>
	</g>
	<g id="LINE_22_">
		
			<line style="fill:none;stroke:#000000;stroke-width:0.7087;stroke-linecap:round;stroke-linejoin:round;stroke-miterlimit:10;" x1="-207.1" y1="489.8" x2="-208" y2="489.9"/>
	</g>
	<g id="LINE_24_">
		
			<line style="fill:none;stroke:#000000;stroke-width:0.7087;stroke-linecap:round;stroke-linejoin:round;stroke-miterlimit:10;" x1="-81" y1="492.4" x2="-81.1" y2="493.4"/>
	</g>
	<g id="LINE_25_">
		
			<line style="fill:none;stroke:#000000;stroke-width:0.7087;stroke-linecap:round;stroke-linejoin:round;stroke-miterlimit:10;" x1="-210.7" y1="306.2" x2="-210.6" y2="307.1"/>
	</g>
	<g id="LINE_26_">
		
			<line style="fill:none;stroke:#000000;stroke-width:0.7087;stroke-linecap:round;stroke-linejoin:round;stroke-miterlimit:10;" x1="-204" y1="304.4" x2="-204.6" y2="303.6"/>
	</g>
	<g id="LINE_27_">
		
			<line style="fill:none;stroke:#000000;stroke-width:0.7087;stroke-linecap:round;stroke-linejoin:round;stroke-miterlimit:10;" x1="-210.6" y1="307.1" x2="-210.2" y2="308"/>
	</g>
	<g id="LINE_28_">
		
			<line style="fill:none;stroke:#000000;stroke-width:0.7087;stroke-linecap:round;stroke-linejoin:round;stroke-miterlimit:10;" x1="-208" y1="489.9" x2="-208.9" y2="490.2"/>
	</g>
	<g id="LINE_29_">
		
			<line style="fill:none;stroke:#000000;stroke-width:0.7087;stroke-linecap:round;stroke-linejoin:round;stroke-miterlimit:10;" x1="-77.5" y1="497" x2="-76.6" y2="496.8"/>
	</g>
	<g id="LINE_30_">
		
			<line style="fill:none;stroke:#000000;stroke-width:0.7087;stroke-linecap:round;stroke-linejoin:round;stroke-miterlimit:10;" x1="-73.9" y1="493.4" x2="-74" y2="492.4"/>
	</g>
	<g id="LINE_31_">
		
			<line style="fill:none;stroke:#000000;stroke-width:0.7087;stroke-linecap:round;stroke-linejoin:round;stroke-miterlimit:10;" x1="-210.7" y1="493.4" x2="-210.6" y2="494.3"/>
	</g>
	<g id="LINE_32_">
		
			<line style="fill:none;stroke:#000000;stroke-width:0.7087;stroke-linecap:round;stroke-linejoin:round;stroke-miterlimit:10;" x1="-204" y1="495.2" x2="-203.6" y2="494.3"/>
	</g>
	<g id="LINE_33_">
		
			<line style="fill:none;stroke:#000000;stroke-width:0.7087;stroke-linecap:round;stroke-linejoin:round;stroke-miterlimit:10;" x1="-208" y1="302.7" x2="-208.9" y2="303"/>
	</g>
	<g id="LINE_34_">
		
			<line style="fill:none;stroke:#000000;stroke-width:0.7087;stroke-linecap:round;stroke-linejoin:round;stroke-miterlimit:10;" x1="-204" y1="308" x2="-203.6" y2="307.1"/>
	</g>
	<g id="LINE_35_">
		
			<line style="fill:none;stroke:#000000;stroke-width:0.7087;stroke-linecap:round;stroke-linejoin:round;stroke-miterlimit:10;" x1="-205.3" y1="303" x2="-206.2" y2="302.7"/>
	</g>
	<g id="LINE_36_">
		
			<line style="fill:none;stroke:#000000;stroke-width:0.7087;stroke-linecap:round;stroke-linejoin:round;stroke-miterlimit:10;" x1="-206.2" y1="489.9" x2="-207.1" y2="489.8"/>
	</g>
	<g id="LINE_37_">
		
			<line style="fill:none;stroke:#000000;stroke-width:0.7087;stroke-linecap:round;stroke-linejoin:round;stroke-miterlimit:10;" x1="-204.6" y1="303.6" x2="-205.3" y2="303"/>
	</g>
	<g id="LINE_38_">
		
			<line style="fill:none;stroke:#000000;stroke-width:0.7087;stroke-linecap:round;stroke-linejoin:round;stroke-miterlimit:10;" x1="-80" y1="490.8" x2="-80.6" y2="491.6"/>
	</g>
	<g id="LINE_39_">
		
			<line style="fill:none;stroke:#000000;stroke-width:0.7087;stroke-linecap:round;stroke-linejoin:round;stroke-miterlimit:10;" x1="-208.9" y1="303" x2="-209.6" y2="303.6"/>
	</g>
	<g id="LINE_40_">
		
			<line style="fill:none;stroke:#000000;stroke-width:0.7087;stroke-linecap:round;stroke-linejoin:round;stroke-miterlimit:10;" x1="-207.1" y1="302.6" x2="-208" y2="302.7"/>
	</g>
	<g id="LINE_41_">
		
			<line style="fill:none;stroke:#000000;stroke-width:0.7087;stroke-linecap:round;stroke-linejoin:round;stroke-miterlimit:10;" x1="-204" y1="491.6" x2="-204.6" y2="490.8"/>
	</g>
	<g id="LINE_42_">
		
			<line style="fill:none;stroke:#000000;stroke-width:0.7087;stroke-linecap:round;stroke-linejoin:round;stroke-miterlimit:10;" x1="-208.9" y1="496.5" x2="-208" y2="496.8"/>
	</g>
	<g id="LINE_43_">
		
			<line style="fill:none;stroke:#000000;stroke-width:0.7087;stroke-linecap:round;stroke-linejoin:round;stroke-miterlimit:10;" x1="-209.6" y1="308.7" x2="-208.9" y2="309.3"/>
	</g>
	<g id="LINE_44_">
		
			<line style="fill:none;stroke:#000000;stroke-width:0.7087;stroke-linecap:round;stroke-linejoin:round;stroke-miterlimit:10;" x1="-207.1" y1="497" x2="-206.2" y2="496.8"/>
	</g>
	<g id="LINE_45_">
		
			<line style="fill:none;stroke:#000000;stroke-width:0.7087;stroke-linecap:round;stroke-linejoin:round;stroke-miterlimit:10;" x1="-206.2" y1="496.8" x2="-205.3" y2="496.5"/>
	</g>
	<g id="LINE_46_">
		
			<line style="fill:none;stroke:#000000;stroke-width:0.7087;stroke-linecap:round;stroke-linejoin:round;stroke-miterlimit:10;" x1="-210.2" y1="491.6" x2="-210.6" y2="492.4"/>
	</g>
	<g id="LINE_47_">
		
			<line style="fill:none;stroke:#000000;stroke-width:0.7087;stroke-linecap:round;stroke-linejoin:round;stroke-miterlimit:10;" x1="-209.6" y1="490.8" x2="-210.2" y2="491.6"/>
	</g>
	<g id="LINE_48_">
		
			<line style="fill:none;stroke:#000000;stroke-width:0.7087;stroke-linecap:round;stroke-linejoin:round;stroke-miterlimit:10;" x1="-208" y1="496.8" x2="-207.1" y2="497"/>
	</g>
	<g id="LINE_49_">
		
			<line style="fill:none;stroke:#000000;stroke-width:0.7087;stroke-linecap:round;stroke-linejoin:round;stroke-miterlimit:10;" x1="-203.6" y1="305.2" x2="-204" y2="304.4"/>
	</g>
	<g id="LINE_50_">
		
			<line style="fill:none;stroke:#000000;stroke-width:0.7087;stroke-linecap:round;stroke-linejoin:round;stroke-miterlimit:10;" x1="-205.3" y1="496.5" x2="-204.6" y2="495.9"/>
	</g>
	<g id="LINE_51_">
		
			<line style="fill:none;stroke:#000000;stroke-width:0.7087;stroke-linecap:round;stroke-linejoin:round;stroke-miterlimit:10;" x1="-209.6" y1="495.9" x2="-208.9" y2="496.5"/>
	</g>
	<g id="LINE_53_">
		
			<line style="fill:none;stroke:#000000;stroke-width:0.7087;stroke-linecap:round;stroke-linejoin:round;stroke-miterlimit:10;" x1="-80.6" y1="495.2" x2="-80" y2="495.9"/>
	</g>
	<g id="LINE_54_">
		
			<line style="fill:none;stroke:#000000;stroke-width:0.7087;stroke-linecap:round;stroke-linejoin:round;stroke-miterlimit:10;" x1="-203.6" y1="307.1" x2="-203.5" y2="306.2"/>
	</g>
	<g id="LINE_55_">
		
			<line style="fill:none;stroke:#000000;stroke-width:0.7087;stroke-linecap:round;stroke-linejoin:round;stroke-miterlimit:10;" x1="-209.6" y1="303.6" x2="-210.2" y2="304.4"/>
	</g>
	<g id="LINE_56_">
		
			<line style="fill:none;stroke:#000000;stroke-width:0.7087;stroke-linecap:round;stroke-linejoin:round;stroke-miterlimit:10;" x1="-203.5" y1="306.2" x2="-203.6" y2="305.2"/>
	</g>
	<g id="LINE_58_">
		
			<line style="fill:none;stroke:#000000;stroke-width:0.7087;stroke-linecap:round;stroke-linejoin:round;stroke-miterlimit:10;" x1="-75.7" y1="496.5" x2="-75" y2="495.9"/>
	</g>
	<g id="LINE_59_">
		
			<line style="fill:none;stroke:#000000;stroke-width:0.7087;stroke-linecap:round;stroke-linejoin:round;stroke-miterlimit:10;" x1="-80.6" y1="304.4" x2="-81" y2="305.2"/>
	</g>
	<g id="LINE_60_">
		
			<line style="fill:none;stroke:#000000;stroke-width:0.7087;stroke-linecap:round;stroke-linejoin:round;stroke-miterlimit:10;" x1="-77.5" y1="489.8" x2="-78.4" y2="489.9"/>
	</g>
	<g id="LINE_61_">
		
			<line style="fill:none;stroke:#000000;stroke-width:0.7087;stroke-linecap:round;stroke-linejoin:round;stroke-miterlimit:10;" x1="-81" y1="305.2" x2="-81.1" y2="306.2"/>
	</g>
	<g id="LINE_62_">
		
			<line style="fill:none;stroke:#000000;stroke-width:0.7087;stroke-linecap:round;stroke-linejoin:round;stroke-miterlimit:10;" x1="-79.3" y1="303" x2="-80" y2="303.6"/>
	</g>
	<g id="LINE_63_">
		
			<line style="fill:none;stroke:#000000;stroke-width:0.7087;stroke-linecap:round;stroke-linejoin:round;stroke-miterlimit:10;" x1="-79.3" y1="490.2" x2="-80" y2="490.8"/>
	</g>
	<g id="LINE_67_">
		
			<line style="fill:none;stroke:#000000;stroke-width:0.7087;stroke-linecap:round;stroke-linejoin:round;stroke-miterlimit:10;" x1="-80" y1="308.7" x2="-79.3" y2="309.3"/>
	</g>
	<g id="LINE_95_">
		
			<polygon style="fill:none;stroke:#000000;stroke-width:0.7087;stroke-linecap:round;stroke-linejoin:round;stroke-miterlimit:10;" points="
			-163.3,506.2 -163.3,514.7 -191.6,514.7 -191.6,506.2 -220,506.2 -220,473.9 -228.5,473.9 -228.5,431.4 -220,431.4 -220,368.1 
			-228.5,368.1 -228.5,325.6 -220,325.6 -220,284.8 -191.6,284.8 -191.6,276.3 -163.3,276.3 -163.3,284.8 -121.3,284.8 
			-121.3,276.3 -93,276.3 -93,284.8 -64.6,284.8 -64.6,325.6 -56.1,325.6 -56.1,368.1 -64.6,368.1 -64.6,431.4 -56.1,431.4 
			-56.1,473.9 -64.6,473.9 -64.6,506.2 -93,506.2 -93,514.7 -121.3,514.7 -121.3,506.2 		"/>
	</g>
	<g id="LINE_96_">
		
			<line style="fill:none;stroke:#000000;stroke-width:0.7087;stroke-linecap:round;stroke-linejoin:round;stroke-miterlimit:10;" x1="-78.4" y1="489.9" x2="-79.3" y2="490.2"/>
	</g>
	<g id="LINE_97_">
		
			<line style="fill:none;stroke:#000000;stroke-width:0.7087;stroke-linecap:round;stroke-linejoin:round;stroke-miterlimit:10;" x1="-76.6" y1="489.9" x2="-77.5" y2="489.8"/>
	</g>
	<g id="LINE_98_">
		
			<line style="fill:none;stroke:#000000;stroke-width:0.7087;stroke-linecap:round;stroke-linejoin:round;stroke-miterlimit:10;" x1="-75" y1="490.8" x2="-75.7" y2="490.2"/>
	</g>
	<g id="LINE_99_">
		
			<line style="fill:none;stroke:#000000;stroke-width:0.7087;stroke-linecap:round;stroke-linejoin:round;stroke-miterlimit:10;" x1="-74.4" y1="491.6" x2="-75" y2="490.8"/>
	</g>
	<g id="LINE_100_">
		
			<line style="fill:none;stroke:#000000;stroke-width:0.7087;stroke-linecap:round;stroke-linejoin:round;stroke-miterlimit:10;" x1="-74" y1="492.4" x2="-74.4" y2="491.6"/>
	</g>
	<g id="LINE_101_">
		
			<line style="fill:none;stroke:#000000;stroke-width:0.7087;stroke-linecap:round;stroke-linejoin:round;stroke-miterlimit:10;" x1="-74" y1="494.3" x2="-73.9" y2="493.4"/>
	</g>
	<g id="LINE_102_">
		
			<line style="fill:none;stroke:#000000;stroke-width:0.7087;stroke-linecap:round;stroke-linejoin:round;stroke-miterlimit:10;" x1="-74.4" y1="495.2" x2="-74" y2="494.3"/>
	</g>
	<g id="LINE_103_">
		
			<line style="fill:none;stroke:#000000;stroke-width:0.7087;stroke-linecap:round;stroke-linejoin:round;stroke-miterlimit:10;" x1="-75" y1="495.9" x2="-74.4" y2="495.2"/>
	</g>
	<g id="LINE_104_">
		
			<line style="fill:none;stroke:#000000;stroke-width:0.7087;stroke-linecap:round;stroke-linejoin:round;stroke-miterlimit:10;" x1="-78.4" y1="496.8" x2="-77.5" y2="497"/>
	</g>
	<g id="LINE_105_">
		
			<line style="fill:none;stroke:#000000;stroke-width:0.7087;stroke-linecap:round;stroke-linejoin:round;stroke-miterlimit:10;" x1="-81" y1="307.1" x2="-80.6" y2="308"/>
	</g>
	<g id="LINE_106_">
		
			<line style="fill:none;stroke:#000000;stroke-width:0.7087;stroke-linecap:round;stroke-linejoin:round;stroke-miterlimit:10;" x1="-81.1" y1="306.2" x2="-81" y2="307.1"/>
	</g>
	<g id="LINE_107_">
		
			<line style="fill:none;stroke:#000000;stroke-width:0.7087;stroke-linecap:round;stroke-linejoin:round;stroke-miterlimit:10;" x1="-80" y1="303.6" x2="-80.6" y2="304.4"/>
	</g>
	<g id="LINE_108_">
		
			<line style="fill:none;stroke:#000000;stroke-width:0.7087;stroke-linecap:round;stroke-linejoin:round;stroke-miterlimit:10;" x1="-78.4" y1="302.7" x2="-79.3" y2="303"/>
	</g>
	<g id="LINE_109_">
		
			<line style="fill:none;stroke:#000000;stroke-width:0.7087;stroke-linecap:round;stroke-linejoin:round;stroke-miterlimit:10;" x1="-77.5" y1="302.6" x2="-78.4" y2="302.7"/>
	</g>
	<g id="LINE_110_">
		
			<line style="fill:none;stroke:#000000;stroke-width:0.7087;stroke-linecap:round;stroke-linejoin:round;stroke-miterlimit:10;" x1="-76.6" y1="302.7" x2="-77.5" y2="302.6"/>
	</g>
	<g id="LINE_111_">
		
			<line style="fill:none;stroke:#000000;stroke-width:0.7087;stroke-linecap:round;stroke-linejoin:round;stroke-miterlimit:10;" x1="-75.7" y1="303" x2="-76.6" y2="302.7"/>
	</g>
	<g id="LINE_112_">
		
			<line style="fill:none;stroke:#000000;stroke-width:0.7087;stroke-linecap:round;stroke-linejoin:round;stroke-miterlimit:10;" x1="-75" y1="303.6" x2="-75.7" y2="303"/>
	</g>
	<g id="LINE_113_">
		
			<line style="fill:none;stroke:#000000;stroke-width:0.7087;stroke-linecap:round;stroke-linejoin:round;stroke-miterlimit:10;" x1="-74.4" y1="304.4" x2="-75" y2="303.6"/>
	</g>
	<g id="LINE_114_">
		
			<line style="fill:none;stroke:#000000;stroke-width:0.7087;stroke-linecap:round;stroke-linejoin:round;stroke-miterlimit:10;" x1="-74" y1="305.2" x2="-74.4" y2="304.4"/>
	</g>
	<g id="LINE_115_">
		
			<line style="fill:none;stroke:#000000;stroke-width:0.7087;stroke-linecap:round;stroke-linejoin:round;stroke-miterlimit:10;" x1="-73.9" y1="306.2" x2="-74" y2="305.2"/>
	</g>
	<g id="LINE_116_">
		
			<line style="fill:none;stroke:#000000;stroke-width:0.7087;stroke-linecap:round;stroke-linejoin:round;stroke-miterlimit:10;" x1="-74" y1="307.1" x2="-73.9" y2="306.2"/>
	</g>
	<g id="LINE_117_">
		
			<line style="fill:none;stroke:#000000;stroke-width:0.7087;stroke-linecap:round;stroke-linejoin:round;stroke-miterlimit:10;" x1="-74.4" y1="308" x2="-74" y2="307.1"/>
	</g>
	<g id="LINE_118_">
		
			<line style="fill:none;stroke:#000000;stroke-width:0.7087;stroke-linecap:round;stroke-linejoin:round;stroke-miterlimit:10;" x1="-75" y1="308.7" x2="-74.4" y2="308"/>
	</g>
	<g id="LINE_119_">
		
			<line style="fill:none;stroke:#000000;stroke-width:0.7087;stroke-linecap:round;stroke-linejoin:round;stroke-miterlimit:10;" x1="-75.7" y1="309.3" x2="-75" y2="308.7"/>
	</g>
	<g id="LINE_120_">
		
			<line style="fill:none;stroke:#000000;stroke-width:0.7087;stroke-linecap:round;stroke-linejoin:round;stroke-miterlimit:10;" x1="-76.6" y1="309.6" x2="-75.7" y2="309.3"/>
	</g>
	<g id="LINE_121_">
		
			<line style="fill:none;stroke:#000000;stroke-width:0.7087;stroke-linecap:round;stroke-linejoin:round;stroke-miterlimit:10;" x1="-77.5" y1="309.8" x2="-76.6" y2="309.6"/>
	</g>
	<g id="LINE_122_">
		
			<line style="fill:none;stroke:#000000;stroke-width:0.7087;stroke-linecap:round;stroke-linejoin:round;stroke-miterlimit:10;" x1="-78.4" y1="309.6" x2="-77.5" y2="309.8"/>
	</g>
	<g id="LINE_123_">
		
			<line style="fill:none;stroke:#000000;stroke-width:0.7087;stroke-linecap:round;stroke-linejoin:round;stroke-miterlimit:10;" x1="-79.3" y1="309.3" x2="-78.4" y2="309.6"/>
	</g>
	<g id="LINE_124_">
		
			<line style="fill:none;stroke:#000000;stroke-width:0.7087;stroke-linecap:round;stroke-linejoin:round;stroke-miterlimit:10;" x1="-80.6" y1="308" x2="-80" y2="308.7"/>
	</g>
	<g id="LINE_125_">
		
			<line style="fill:none;stroke:#000000;stroke-width:0.7087;stroke-linecap:round;stroke-linejoin:round;stroke-miterlimit:10;" x1="-204.6" y1="308.7" x2="-204" y2="308"/>
	</g>
	<g id="LINE_126_">
		
			<line style="fill:none;stroke:#000000;stroke-width:0.7087;stroke-linecap:round;stroke-linejoin:round;stroke-miterlimit:10;" x1="-205.3" y1="309.3" x2="-204.6" y2="308.7"/>
	</g>
	<g id="LINE_127_">
		
			<line style="fill:none;stroke:#000000;stroke-width:0.7087;stroke-linecap:round;stroke-linejoin:round;stroke-miterlimit:10;" x1="-206.2" y1="309.6" x2="-205.3" y2="309.3"/>
	</g>
	<g id="LINE_128_">
		
			<line style="fill:none;stroke:#000000;stroke-width:0.7087;stroke-linecap:round;stroke-linejoin:round;stroke-miterlimit:10;" x1="-204.6" y1="490.8" x2="-205.3" y2="490.2"/>
	</g>
	<g id="LINE_129_">
		
			<line style="fill:none;stroke:#000000;stroke-width:0.7087;stroke-linecap:round;stroke-linejoin:round;stroke-miterlimit:10;" x1="-203.6" y1="492.4" x2="-204" y2="491.6"/>
	</g>
	<g id="LINE_130_">
		
			<line style="fill:none;stroke:#000000;stroke-width:0.7087;stroke-linecap:round;stroke-linejoin:round;stroke-miterlimit:10;" x1="-203.5" y1="493.4" x2="-203.6" y2="492.4"/>
	</g>
	<g id="LINE_131_">
		
			<line style="fill:none;stroke:#000000;stroke-width:0.7087;stroke-linecap:round;stroke-linejoin:round;stroke-miterlimit:10;" x1="-203.6" y1="494.3" x2="-203.5" y2="493.4"/>
	</g>
</g>
<g>
	<g id="LINE_153_">
		
			<polygon style="fill:none;stroke:#000000;stroke-width:0.7087;stroke-linecap:round;stroke-linejoin:round;stroke-miterlimit:10;" points="
			580.5,426.3 580.5,476.2 572,476.2 572,514.7 416.6,514.7 416.6,476.2 408.1,476.2 408.1,426.3 416.6,426.3 416.6,397.9 
			445,397.9 445,406.4 473.3,406.4 473.3,397.9 515.3,397.9 515.3,406.4 543.6,406.4 543.6,397.9 572,397.9 572,426.3 		"/>
	</g>
	<g id="LINE_155_">
		
			<rect x="515.3" y="497.2" style="fill:none;stroke:#000000;stroke-width:0.7087;stroke-linecap:round;stroke-linejoin:round;stroke-miterlimit:10;" width="28.3" height="8.5"/>
	</g>
	<g id="LINE_159_">
		
			<rect x="445" y="497.2" style="fill:none;stroke:#000000;stroke-width:0.7087;stroke-linecap:round;stroke-linejoin:round;stroke-miterlimit:10;" width="28.3" height="8.5"/>
	</g>
</g>
<g>
	<g id="LINE_183_">
		
			<polygon style="fill:none;stroke:#000000;stroke-width:0.7087;stroke-linecap:round;stroke-linejoin:round;stroke-miterlimit:10;" points="
			572,393.1 416.6,393.1 416.6,354.5 408.1,354.5 408.1,304.6 416.6,304.6 416.6,276.3 445,276.3 445,284.8 473.3,284.8 
			473.3,276.3 515.3,276.3 515.3,284.8 543.6,284.8 543.6,276.3 572,276.3 572,304.6 580.5,304.6 580.5,354.5 572,354.5 		"/>
	</g>
	<g id="LINE_185_">
		
			<rect x="515.3" y="375.5" style="fill:none;stroke:#000000;stroke-width:0.7087;stroke-linecap:round;stroke-linejoin:round;stroke-miterlimit:10;" width="28.3" height="8.5"/>
	</g>
	<g id="LINE_187_">
		
			<rect x="445" y="375.5" style="fill:none;stroke:#000000;stroke-width:0.7087;stroke-linecap:round;stroke-linejoin:round;stroke-miterlimit:10;" width="28.3" height="8.5"/>
	</g>
</g>
<g id="LINE_234_">
	
		<polygon style="fill:none;stroke:#000000;stroke-width:0.7087;stroke-linecap:round;stroke-linejoin:round;stroke-miterlimit:10;" points="
		14.7,284.8 56.7,284.8 56.7,276.3 85,276.3 85,284.8 113.4,284.8 113.4,325.6 121.9,325.6 121.9,368.1 113.4,368.1 106.8,369.2 
		100.7,372.4 95.5,377.4 91.5,383.9 88.9,391.6 88.1,399.8 88.9,407.9 91.5,415.6 95.5,422.1 100.7,427.1 106.8,430.3 113.4,431.4 
		121.9,431.4 121.9,473.9 113.4,473.9 113.4,506.2 85,506.2 85,514.7 56.7,514.7 56.7,506.2 14.7,506.2 14.7,514.7 -13.6,514.7 
		-13.6,506.2 -42,506.2 -42,473.9 -50.5,473.9 -50.5,431.4 -42,431.4 -42,368.1 -50.5,368.1 -50.5,325.6 -42,325.6 -42,284.8 
		-13.6,284.8 -13.6,276.3 14.7,276.3 	"/>
</g>
<g>
	<g id="LINE_246_">
		
			<path style="fill:none;stroke:#000000;stroke-width:0.7087;stroke-linecap:round;stroke-linejoin:round;stroke-miterlimit:10;" d="
			M274.4,325.6h2.8c1.6,0,2.8,1.3,2.8,2.8v36.9c0,1.6-1.3,2.8-2.8,2.8h-2.8c-1.6,0-2.8-1.3-2.8-2.8v-36.9
			C271.6,326.9,272.8,325.6,274.4,325.6z"/>
	</g>
	<g id="LINE_248_">
		
			<path style="fill:none;stroke:#000000;stroke-width:0.7087;stroke-linecap:round;stroke-linejoin:round;stroke-miterlimit:10;" d="
			M280.1,471.1v-36.9c0-1.6-1.3-2.8-2.8-2.8h-2.8c-1.6,0-2.8,1.3-2.8,2.8v36.9c0,1.6,1.3,2.8,2.8,2.8h2.8
			C278.8,473.9,280.1,472.6,280.1,471.1z"/>
	</g>
	<g id="LINE_275_">
		
			<path style="fill:none;stroke:#000000;stroke-width:0.7087;stroke-linecap:round;stroke-linejoin:round;stroke-miterlimit:10;" d="
			M324.3,506.2h49.9v8.5h28.3v-40.8H394v-42.5h8.5v-63.3H394v-42.5h8.5v-49.3h-28.3v8.5h-49.9v-8.5h-38.6v25.2
			c0,5.5-4.4,9.9-9.9,9.9h0c-5.5,0-9.9,4.4-9.9,9.9v51c0,5.5,4.4,9.9,9.9,9.9h0c5.5,0,9.9,4.4,9.9,9.9v15.1c0,5.5-4.4,9.9-9.9,9.9h0
			c-5.5,0-9.9,4.4-9.9,9.9v51c0,5.5,4.4,9.9,9.9,9.9h0c5.5,0,9.9,4.4,9.9,9.9v16.7h38.6V506.2z"/>
	</g>
	<g id="LINE_279_">
		
			<rect x="294.8" y="325.6" style="fill:none;stroke:#000000;stroke-width:0.7087;stroke-linecap:round;stroke-linejoin:round;stroke-miterlimit:10;" width="8.5" height="42.5"/>
	</g>
	<g id="LINE_283_">
		
			<rect x="294.8" y="431.4" style="fill:none;stroke:#000000;stroke-width:0.7087;stroke-linecap:round;stroke-linejoin:round;stroke-miterlimit:10;" width="8.5" height="42.5"/>
	</g>
	<g id="LINE_302_">
		
			<polygon style="fill:none;stroke:#000000;stroke-width:0.7087;stroke-linecap:round;stroke-linejoin:round;stroke-miterlimit:10;" points="
			358.5,391.8 360.4,393.2 361.9,395.1 362.8,397.4 363.1,399.8 362.8,402.1 361.9,404.4 360.4,406.3 358.5,407.7 356.3,408.7 
			353.9,409 351.5,408.7 349.3,407.7 347.4,406.3 345.9,404.4 345,402.1 344.7,399.8 345,397.4 345.9,395.1 347.4,393.2 
			349.3,391.8 351.5,390.9 353.9,390.5 356.3,390.9 		"/>
	</g>
</g>
<g>
	<g id="LINE_309_">
		
			<path style="fill:none;stroke:#000000;stroke-width:0.7087;stroke-linecap:round;stroke-linejoin:round;stroke-miterlimit:10;" d="
			M131.8,365.3v-36.9c0-1.6,1.3-2.8,2.8-2.8h2.8c1.6,0,2.8,1.3,2.8,2.8v36.9c0,1.6-1.3,2.8-2.8,2.8h-2.8
			C133.1,368.1,131.8,366.8,131.8,365.3z"/>
	</g>
	<g id="LINE_316_">
		
			<path style="fill:none;stroke:#000000;stroke-width:0.7087;stroke-linecap:round;stroke-linejoin:round;stroke-miterlimit:10;" d="
			M134.6,431.4h2.8c1.6,0,2.8,1.3,2.8,2.8v36.9c0,1.6-1.3,2.8-2.8,2.8h-2.8c-1.6,0-2.8-1.3-2.8-2.8v-36.9
			C131.8,432.7,133.1,431.4,134.6,431.4z"/>
	</g>
	<g id="LINE_352_">
		
			<rect x="155" y="431.4" style="fill:none;stroke:#000000;stroke-width:0.7087;stroke-linecap:round;stroke-linejoin:round;stroke-miterlimit:10;" width="8.5" height="42.5"/>
	</g>
	<g id="LINE_357_">
		
			<path style="fill:none;stroke:#000000;stroke-width:0.7087;stroke-linecap:round;stroke-linejoin:round;stroke-miterlimit:10;" d="
			M184.5,284.8v-8.5H146v25.2c0,5.5-4.4,9.9-9.9,9.9h0c-5.5,0-9.9,4.4-9.9,9.9v51c0,5.5,4.4,9.9,9.9,9.9h0c5.5,0,9.9,4.4,9.9,9.9
			v15.1c0,5.5-4.4,9.9-9.9,9.9h0c-5.5,0-9.9,4.4-9.9,9.9v51c0,5.5,4.4,9.9,9.9,9.9h0c5.5,0,9.9,4.4,9.9,9.9v16.7h38.6v-8.5h49.9v8.5
			h28.3v-40.8h-8.5v-42.5l-6.6-1.1l-6.1-3.2l-5.2-5l-4-6.6l-2.5-7.6l-0.9-8.2l0.9-8.2l2.5-7.6l4-6.6l5.2-5l6.1-3.2l6.6-1.1v-42.5
			h8.5v-49.3h-28.3v8.5H184.5z"/>
	</g>
	<g id="LINE_358_">
		
			<path style="fill:none;stroke:#000000;stroke-width:0.7087;stroke-linecap:round;stroke-linejoin:round;stroke-miterlimit:10;" d="
			M248.7,345.5v-28.3c0-1.6-1.3-2.8-2.8-2.8h-17c-1.6,0-2.8,1.3-2.8,2.8v28.3c0,1.6,1.3,2.8,2.8,2.8h17
			C247.5,348.4,248.7,347.1,248.7,345.5z"/>
	</g>
	<g id="LINE_359_">
		
			<rect x="155" y="325.6" style="fill:none;stroke:#000000;stroke-width:0.7087;stroke-linecap:round;stroke-linejoin:round;stroke-miterlimit:10;" width="8.5" height="42.5"/>
	</g>
</g>
</svg>
