<?xml version="1.0" encoding="utf-8"?>
<!-- Generator: Adobe Illustrator 19.0.0, SVG Export Plug-In . SVG Version: 6.00 Build 0)  -->
<svg version="1.1" id="_x30_" xmlns="http://www.w3.org/2000/svg" xmlns:xlink="http://www.w3.org/1999/xlink" x="0px" y="0px"
	 width="612px" height="792px" viewBox="0 0 612 792" style="enable-background:new 0 0 612 792;" xml:space="preserve">
<style type="text/css">
	.st0{fill:none;stroke:#000000;stroke-width:0.7087;stroke-linecap:round;stroke-linejoin:round;stroke-miterlimit:10;}
</style>
<g id="LINE">
	<line class="st0" x1="209.1" y1="26.8" x2="208.1" y2="26.6"/>
</g>
<g id="LINE_2_">
	<line class="st0" x1="204.7" y1="160.8" x2="205" y2="161.6"/>
</g>
<g id="LINE_3_">
	<line class="st0" x1="209.9" y1="156.7" x2="209.1" y2="156.4"/>
</g>
<g id="LINE_5_">
	<line class="st0" x1="211.3" y1="161.6" x2="211.6" y2="160.8"/>
</g>
<g id="LINE_6_">
	<line class="st0" x1="206.3" y1="27.1" x2="205.6" y2="27.7"/>
</g>
<g id="LINE_7_">
	<line class="st0" x1="208.1" y1="156.2" x2="207.2" y2="156.4"/>
</g>
<g id="LINE_8_">
	<line class="st0" x1="396.3" y1="26.8" x2="395.3" y2="26.6"/>
</g>
<g id="LINE_9_">
	<line class="st0" x1="391.7" y1="30.2" x2="391.9" y2="31.2"/>
</g>
<g id="LINE_10_">
	<line class="st0" x1="398.8" y1="31.2" x2="398.9" y2="30.2"/>
</g>
<g id="LINE_11_">
	<line class="st0" x1="391.9" y1="29.3" x2="391.7" y2="30.2"/>
</g>
<g id="LINE_12_">
	<line class="st0" x1="397.1" y1="27.1" x2="396.3" y2="26.8"/>
</g>
<g id="LINE_13_">
	<line class="st0" x1="205.6" y1="32.8" x2="206.3" y2="33.3"/>
</g>
<g id="LINE_14_">
	<line class="st0" x1="205.6" y1="157.3" x2="205" y2="158"/>
</g>
<g id="LINE_15_">
	<line class="st0" x1="207.2" y1="26.8" x2="206.3" y2="27.1"/>
</g>
<g id="LINE_16_">
	<line class="st0" x1="211.3" y1="28.4" x2="210.7" y2="27.7"/>
</g>
<g id="LINE_17_">
	<line class="st0" x1="205" y1="158" x2="204.7" y2="158.9"/>
</g>
<g id="LINE_18_">
	<line class="st0" x1="392.2" y1="28.4" x2="391.9" y2="29.3"/>
</g>
<g id="LINE_19_">
	<line class="st0" x1="207.2" y1="156.4" x2="206.3" y2="156.7"/>
</g>
<g id="LINE_20_">
	<line class="st0" x1="393.5" y1="27.1" x2="392.8" y2="27.7"/>
</g>
<g id="LINE_21_">
	<line class="st0" x1="211.3" y1="32" x2="211.6" y2="31.2"/>
</g>
<g id="LINE_22_">
	<line class="st0" x1="211.7" y1="30.2" x2="211.6" y2="29.3"/>
</g>
<g id="LINE_24_">
	<line class="st0" x1="209.1" y1="156.4" x2="208.1" y2="156.2"/>
</g>
<g id="LINE_25_">
	<line class="st0" x1="395.3" y1="26.6" x2="394.4" y2="26.8"/>
</g>
<g id="LINE_26_">
	<line class="st0" x1="397.1" y1="33.3" x2="397.9" y2="32.8"/>
</g>
<g id="LINE_27_">
	<line class="st0" x1="394.4" y1="26.8" x2="393.5" y2="27.1"/>
</g>
<g id="LINE_28_">
	<line class="st0" x1="211.6" y1="29.3" x2="211.3" y2="28.4"/>
</g>
<g id="LINE_29_">
	<line class="st0" x1="204.5" y1="159.8" x2="204.7" y2="160.8"/>
</g>
<g id="LINE_30_">
	<line class="st0" x1="208.1" y1="163.4" x2="209.1" y2="163.3"/>
</g>
<g id="LINE_31_">
	<line class="st0" x1="208.1" y1="26.6" x2="207.2" y2="26.8"/>
</g>
<g id="LINE_32_">
	<line class="st0" x1="206.3" y1="33.3" x2="207.2" y2="33.7"/>
</g>
<g id="LINE_33_">
	<line class="st0" x1="398.8" y1="29.3" x2="398.5" y2="28.4"/>
</g>
<g id="LINE_34_">
	<line class="st0" x1="393.5" y1="33.3" x2="394.4" y2="33.7"/>
</g>
<g id="LINE_35_">
	<line class="st0" x1="398.5" y1="32" x2="398.8" y2="31.2"/>
</g>
<g id="LINE_36_">
	<line class="st0" x1="211.6" y1="31.2" x2="211.7" y2="30.2"/>
</g>
<g id="LINE_37_">
	<line class="st0" x1="397.9" y1="32.8" x2="398.5" y2="32"/>
</g>
<g id="LINE_38_">
	<line class="st0" x1="210.7" y1="157.3" x2="209.9" y2="156.7"/>
</g>
<g id="LINE_39_">
	<line class="st0" x1="398.5" y1="28.4" x2="397.9" y2="27.7"/>
</g>
<g id="LINE_40_">
	<line class="st0" x1="398.9" y1="30.2" x2="398.8" y2="29.3"/>
</g>
<g id="LINE_41_">
	<line class="st0" x1="209.9" y1="33.3" x2="210.7" y2="32.8"/>
</g>
<g id="LINE_42_">
	<line class="st0" x1="205" y1="28.4" x2="204.7" y2="29.3"/>
</g>
<g id="LINE_43_">
	<line class="st0" x1="392.8" y1="27.7" x2="392.2" y2="28.4"/>
</g>
<g id="LINE_44_">
	<line class="st0" x1="204.5" y1="30.2" x2="204.7" y2="31.2"/>
</g>
<g id="LINE_45_">
	<line class="st0" x1="204.7" y1="31.2" x2="205" y2="32"/>
</g>
<g id="LINE_46_">
	<line class="st0" x1="209.9" y1="27.1" x2="209.1" y2="26.8"/>
</g>
<g id="LINE_47_">
	<line class="st0" x1="210.7" y1="27.7" x2="209.9" y2="27.1"/>
</g>
<g id="LINE_48_">
	<line class="st0" x1="204.7" y1="29.3" x2="204.5" y2="30.2"/>
</g>
<g id="LINE_49_">
	<line class="st0" x1="396.3" y1="33.7" x2="397.1" y2="33.3"/>
</g>
<g id="LINE_50_">
	<line class="st0" x1="205" y1="32" x2="205.6" y2="32.8"/>
</g>
<g id="LINE_51_">
	<line class="st0" x1="205.6" y1="27.7" x2="205" y2="28.4"/>
</g>
<g id="LINE_53_">
	<line class="st0" x1="206.3" y1="156.7" x2="205.6" y2="157.3"/>
</g>
<g id="LINE_54_">
	<line class="st0" x1="394.4" y1="33.7" x2="395.3" y2="33.8"/>
</g>
<g id="LINE_55_">
	<line class="st0" x1="397.9" y1="27.7" x2="397.1" y2="27.1"/>
</g>
<g id="LINE_56_">
	<line class="st0" x1="395.3" y1="33.8" x2="396.3" y2="33.7"/>
</g>
<g id="LINE_58_">
	<line class="st0" x1="205" y1="161.6" x2="205.6" y2="162.4"/>
</g>
<g id="LINE_59_">
	<line class="st0" x1="397.1" y1="156.7" x2="396.3" y2="156.4"/>
</g>
<g id="LINE_60_">
	<line class="st0" x1="211.7" y1="159.8" x2="211.6" y2="158.9"/>
</g>
<g id="LINE_61_">
	<line class="st0" x1="396.3" y1="156.4" x2="395.3" y2="156.2"/>
</g>
<g id="LINE_62_">
	<line class="st0" x1="398.5" y1="158" x2="397.9" y2="157.3"/>
</g>
<g id="LINE_63_">
	<line class="st0" x1="211.3" y1="158" x2="210.7" y2="157.3"/>
</g>
<g id="LINE_67_">
	<line class="st0" x1="392.8" y1="157.3" x2="392.2" y2="158"/>
</g>
<g id="LINE_95_">
	<polygon class="st0" points="227.6,8.9 270.1,8.9 270.1,17.4 333.4,17.4 333.4,8.9 375.9,8.9 375.9,17.4 416.7,17.4 416.7,45.7 
		425.2,45.7 425.2,74.1 416.7,74.1 416.7,116 425.2,116 425.2,144.4 416.7,144.4 416.7,172.7 375.9,172.7 375.9,181.2 333.4,181.2 
		333.4,172.7 270.1,172.7 270.1,181.2 227.6,181.2 227.6,172.7 195.3,172.7 195.3,144.4 186.8,144.4 186.8,116 195.3,116 
		195.3,74.1 186.8,74.1 186.8,45.7 195.3,45.7 195.3,17.4 227.6,17.4 	"/>
</g>
<g id="LINE_96_">
	<line class="st0" x1="211.6" y1="158.9" x2="211.3" y2="158"/>
</g>
<g id="LINE_97_">
	<line class="st0" x1="211.6" y1="160.8" x2="211.7" y2="159.8"/>
</g>
<g id="LINE_98_">
	<line class="st0" x1="210.7" y1="162.4" x2="211.3" y2="161.6"/>
</g>
<g id="LINE_99_">
	<line class="st0" x1="209.9" y1="162.9" x2="210.7" y2="162.4"/>
</g>
<g id="LINE_100_">
	<line class="st0" x1="209.1" y1="163.3" x2="209.9" y2="162.9"/>
</g>
<g id="LINE_101_">
	<line class="st0" x1="207.2" y1="163.3" x2="208.1" y2="163.4"/>
</g>
<g id="LINE_102_">
	<line class="st0" x1="206.3" y1="162.9" x2="207.2" y2="163.3"/>
</g>
<g id="LINE_103_">
	<line class="st0" x1="205.6" y1="162.4" x2="206.3" y2="162.9"/>
</g>
<g id="LINE_104_">
	<line class="st0" x1="204.7" y1="158.9" x2="204.5" y2="159.8"/>
</g>
<g id="LINE_105_">
	<line class="st0" x1="394.4" y1="156.4" x2="393.5" y2="156.7"/>
</g>
<g id="LINE_106_">
	<line class="st0" x1="395.3" y1="156.2" x2="394.4" y2="156.4"/>
</g>
<g id="LINE_107_">
	<line class="st0" x1="397.9" y1="157.3" x2="397.1" y2="156.7"/>
</g>
<g id="LINE_108_">
	<line class="st0" x1="398.8" y1="158.9" x2="398.5" y2="158"/>
</g>
<g id="LINE_109_">
	<line class="st0" x1="398.9" y1="159.8" x2="398.8" y2="158.9"/>
</g>
<g id="LINE_110_">
	<line class="st0" x1="398.8" y1="160.8" x2="398.9" y2="159.8"/>
</g>
<g id="LINE_111_">
	<line class="st0" x1="398.5" y1="161.6" x2="398.8" y2="160.8"/>
</g>
<g id="LINE_112_">
	<line class="st0" x1="397.9" y1="162.4" x2="398.5" y2="161.6"/>
</g>
<g id="LINE_113_">
	<line class="st0" x1="397.1" y1="162.9" x2="397.9" y2="162.4"/>
</g>
<g id="LINE_114_">
	<line class="st0" x1="396.3" y1="163.3" x2="397.1" y2="162.9"/>
</g>
<g id="LINE_115_">
	<line class="st0" x1="395.3" y1="163.4" x2="396.3" y2="163.3"/>
</g>
<g id="LINE_116_">
	<line class="st0" x1="394.4" y1="163.3" x2="395.3" y2="163.4"/>
</g>
<g id="LINE_117_">
	<line class="st0" x1="393.5" y1="162.9" x2="394.4" y2="163.3"/>
</g>
<g id="LINE_118_">
	<line class="st0" x1="392.8" y1="162.4" x2="393.5" y2="162.9"/>
</g>
<g id="LINE_119_">
	<line class="st0" x1="392.2" y1="161.6" x2="392.8" y2="162.4"/>
</g>
<g id="LINE_120_">
	<line class="st0" x1="391.9" y1="160.8" x2="392.2" y2="161.6"/>
</g>
<g id="LINE_121_">
	<line class="st0" x1="391.7" y1="159.8" x2="391.9" y2="160.8"/>
</g>
<g id="LINE_122_">
	<line class="st0" x1="391.9" y1="158.9" x2="391.7" y2="159.8"/>
</g>
<g id="LINE_123_">
	<line class="st0" x1="392.2" y1="158" x2="391.9" y2="158.9"/>
</g>
<g id="LINE_124_">
	<line class="st0" x1="393.5" y1="156.7" x2="392.8" y2="157.3"/>
</g>
<g id="LINE_125_">
	<line class="st0" x1="392.8" y1="32.8" x2="393.5" y2="33.3"/>
</g>
<g id="LINE_126_">
	<line class="st0" x1="392.2" y1="32" x2="392.8" y2="32.8"/>
</g>
<g id="LINE_127_">
	<line class="st0" x1="391.9" y1="31.2" x2="392.2" y2="32"/>
</g>
<g id="LINE_128_">
	<line class="st0" x1="210.7" y1="32.8" x2="211.3" y2="32"/>
</g>
<g id="LINE_129_">
	<line class="st0" x1="209.1" y1="33.7" x2="209.9" y2="33.3"/>
</g>
<g id="LINE_130_">
	<line class="st0" x1="208.1" y1="33.8" x2="209.1" y2="33.7"/>
</g>
<g id="LINE_131_">
	<line class="st0" x1="207.2" y1="33.7" x2="208.1" y2="33.8"/>
</g>
<g id="LINE_167_">
	<polygon class="st0" points="195.3,223.7 195.3,195.4 227.6,195.4 227.6,186.9 270.1,186.9 270.1,195.4 333.4,195.4 333.4,186.9 
		375.9,186.9 375.9,195.4 416.7,195.4 416.7,223.7 425.2,223.7 425.2,252.1 416.7,252.1 416.7,294 425.2,294 425.2,322.4 
		416.7,322.4 416.7,350.7 375.9,350.7 375.9,359.2 333.4,359.2 333.4,350.7 270.1,350.7 270.1,359.2 227.6,359.2 227.6,350.7 
		195.3,350.7 195.3,322.4 186.8,322.4 186.8,294 195.3,294 195.3,252.1 186.8,252.1 186.8,223.7 	"/>
</g>
<g id="LINE_217_">
	<polygon class="st0" points="275.2,782.1 225.3,782.1 225.3,773.6 186.8,773.6 186.8,618.3 225.3,618.3 225.3,609.8 275.2,609.8 
		275.2,618.3 303.6,618.3 303.6,646.6 295.1,646.6 295.1,675 303.6,675 303.6,716.9 295.1,716.9 295.1,745.3 303.6,745.3 
		303.6,773.6 275.2,773.6 	"/>
</g>
<g id="LINE_219_">
	<rect x="195.8" y="716.9" class="st0" width="8.5" height="28.3"/>
</g>
<g id="LINE_223_">
	<rect x="195.8" y="646.6" class="st0" width="8.5" height="28.3"/>
</g>
<g id="LINE_247_">
	<polygon class="st0" points="308.4,773.6 308.4,618.3 347,618.3 347,609.8 396.9,609.8 396.9,618.3 425.2,618.3 425.2,646.6 
		416.7,646.6 416.7,675 425.2,675 425.2,716.9 416.7,716.9 416.7,745.3 425.2,745.3 425.2,773.6 396.9,773.6 396.9,782.1 347,782.1 
		347,773.6 	"/>
</g>
<g id="LINE_249_">
	<rect x="317.5" y="716.9" class="st0" width="8.5" height="28.3"/>
</g>
<g id="LINE_251_">
	<rect x="317.5" y="646.6" class="st0" width="8.5" height="28.3"/>
</g>
<g id="LINE_283_">
	<polygon class="st0" points="333.4,604.1 333.4,595.6 375.9,595.6 375.9,604.1 425.2,604.1 425.2,575.8 416.7,575.8 416.7,525.9 
		425.2,525.9 425.2,487.3 186.8,487.3 186.8,525.9 195.3,525.9 195.3,575.8 186.8,575.8 186.8,604.1 227.6,604.1 227.6,595.6 
		270.1,595.6 270.1,604.1 	"/>
</g>
<g id="LINE_285_">
	<rect x="333.4" y="496.4" class="st0" width="42.5" height="8.5"/>
</g>
<g id="LINE_287_">
	<rect x="227.6" y="496.4" class="st0" width="42.5" height="8.5"/>
</g>
<g id="LINE_290_">
	<path class="st0" d="M387.2,570.2v17c0,1.6-1.3,2.8-2.8,2.8H356c-1.6,0-2.8-1.3-2.8-2.8v-17c0-1.6,1.3-2.8,2.8-2.8h28.3
		C385.9,567.4,387.2,568.7,387.2,570.2z"/>
</g>
<g id="LINE_87_">
	<line class="st0" x1="299.4" y1="442" x2="301.7" y2="442.3"/>
</g>
<g id="LINE_86_">
	<line class="st0" x1="310.6" y1="430.7" x2="309.7" y2="428.5"/>
</g>
<g id="LINE_85_">
	<line class="st0" x1="309.7" y1="428.5" x2="308.3" y2="426.5"/>
</g>
<g id="LINE_84_">
	<line class="st0" x1="311" y1="433.1" x2="310.6" y2="430.7"/>
</g>
<g id="LINE_83_">
	<line class="st0" x1="304.1" y1="424.2" x2="301.7" y2="423.9"/>
</g>
<g id="LINE_82_">
	<line class="st0" x1="293.8" y1="428.5" x2="292.8" y2="430.7"/>
</g>
<g id="LINE_81_">
	<line class="st0" x1="308.3" y1="426.5" x2="306.4" y2="425.1"/>
</g>
<g id="LINE_80_">
	<polygon class="st0" points="333.4,481.7 333.4,473.2 375.9,473.2 375.9,481.7 425.2,481.7 425.2,453.3 416.7,453.3 416.7,403.4 
		425.2,403.4 425.2,364.9 186.8,364.9 186.8,403.4 195.3,403.4 195.3,453.3 186.8,453.3 186.8,481.7 227.6,481.7 227.6,473.2 
		270.1,473.2 270.1,481.7 	"/>
</g>
<g id="LINE_79_">
	<rect x="333.4" y="373.9" class="st0" width="42.5" height="8.5"/>
</g>
<g id="LINE_78_">
	<rect x="227.6" y="373.9" class="st0" width="42.5" height="8.5"/>
</g>
<g id="LINE_76_">
	<line class="st0" x1="306.4" y1="425.1" x2="304.1" y2="424.2"/>
</g>
<g id="LINE_75_">
	<line class="st0" x1="301.7" y1="423.9" x2="299.4" y2="424.2"/>
</g>
<g id="LINE_74_">
	<line class="st0" x1="299.4" y1="424.2" x2="297.1" y2="425.1"/>
</g>
<g id="LINE_73_">
	<line class="st0" x1="297.1" y1="425.1" x2="295.2" y2="426.5"/>
</g>
<g id="LINE_72_">
	<line class="st0" x1="295.2" y1="426.5" x2="293.8" y2="428.5"/>
</g>
<g id="LINE_71_">
	<line class="st0" x1="292.8" y1="430.7" x2="292.5" y2="433.1"/>
</g>
<g id="LINE_70_">
	<line class="st0" x1="292.5" y1="433.1" x2="292.8" y2="435.4"/>
</g>
<g id="LINE_69_">
	<line class="st0" x1="292.8" y1="435.4" x2="293.8" y2="437.7"/>
</g>
<g id="LINE_68_">
	<line class="st0" x1="293.8" y1="437.7" x2="295.2" y2="439.6"/>
</g>
<g id="LINE_66_">
	<line class="st0" x1="295.2" y1="439.6" x2="297.1" y2="441"/>
</g>
<g id="LINE_65_">
	<line class="st0" x1="297.1" y1="441" x2="299.4" y2="442"/>
</g>
<g id="LINE_64_">
	<line class="st0" x1="301.7" y1="442.3" x2="304.1" y2="442"/>
</g>
<g id="LINE_57_">
	<line class="st0" x1="304.1" y1="442" x2="306.4" y2="441"/>
</g>
<g id="LINE_52_">
	<line class="st0" x1="306.4" y1="441" x2="308.3" y2="439.6"/>
</g>
<g id="LINE_23_">
	<line class="st0" x1="308.3" y1="439.6" x2="309.7" y2="437.7"/>
</g>
<g id="LINE_4_">
	<line class="st0" x1="309.7" y1="437.7" x2="310.6" y2="435.4"/>
</g>
<g id="LINE_1_">
	<line class="st0" x1="310.6" y1="435.4" x2="311" y2="433.1"/>
</g>
</svg>
